<svg xmlns="http://www.w3.org/2000/svg" viewBox="0 0 1200 630" width="1200" height="630">
  <defs>
    <linearGradient id="bg" x1="0%" y1="0%" x2="100%" y2="100%">
      <stop offset="0%" style="stop-color:#0f1a30"/>
      <stop offset="50%" style="stop-color:#1B2A4A"/>
      <stop offset="100%" style="stop-color:#2A3F6B"/>
    </linearGradient>
  </defs>
  <rect width="1200" height="630" fill="url(#bg)"/>
  <rect x="20" y="20" width="1160" height="590" rx="12" fill="none" stroke="#C9A84C" stroke-width="2.5"/>
  <line x1="100" y1="80" x2="1100" y2="80" stroke="#C9A84C" stroke-width="1.5" opacity="0.5"/>
  <text x="600" y="240" text-anchor="middle" font-family="Georgia, serif" font-size="72" font-weight="bold" fill="#C9A84C">London &amp; UK Planner</text>
  <text x="600" y="310" text-anchor="middle" font-family="Arial, sans-serif" font-size="28" fill="white">Personalised Itineraries | 900+ Venues | From $20</text>
  <line x1="350" y1="345" x2="850" y2="345" stroke="#C9A84C" stroke-width="1.5" opacity="0.5"/>
  <g transform="translate(0, 630)" fill="#22345A" opacity="0.8">
    <rect x="0" y="-100" width="1200" height="100"/>
    <rect x="50" y="-160" width="40" height="60" rx="2"/>
    <rect x="100" y="-140" width="35" height="40" rx="2"/>
    <rect x="145" y="-180" width="30" height="80" rx="2"/>
    <rect x="185" y="-150" width="45" height="50" rx="2"/>
    <rect x="270" y="-280" width="28" height="180" rx="2"/>
    <rect x="264" y="-290" width="40" height="15" rx="3"/>
    <polygon points="284,-290 274,-310 294,-310"/>
    <circle cx="284" cy="-250" r="10" fill="none" stroke="#2E4570" stroke-width="2"/>
    <rect x="305" y="-170" width="120" height="70" rx="2"/>
    <rect x="315" y="-185" width="15" height="15" rx="1"/>
    <rect x="340" y="-185" width="15" height="15" rx="1"/>
    <rect x="365" y="-190" width="15" height="20" rx="1"/>
    <rect x="390" y="-185" width="15" height="15" rx="1"/>
    <circle cx="520" cy="-200" r="80" fill="none" stroke="#22345A" stroke-width="6"/>
    <circle cx="520" cy="-200" r="75" fill="none" stroke="#2E4570" stroke-width="1"/>
    <line x1="520" y1="-200" x2="520" y2="-100" stroke="#22345A" stroke-width="6"/>
    <circle cx="520" cy="-280" r="5"/>
    <circle cx="595" cy="-200" r="5"/>
    <circle cx="520" cy="-120" r="5"/>
    <circle cx="445" cy="-200" r="5"/>
    <circle cx="573" cy="-257" r="5"/>
    <circle cx="467" cy="-257" r="5"/>
    <circle cx="573" cy="-143" r="5"/>
    <circle cx="467" cy="-143" r="5"/>
    <rect x="640" y="-160" width="35" height="60" rx="2"/>
    <rect x="685" y="-190" width="40" height="90" rx="2"/>
    <rect x="735" y="-150" width="30" height="50" rx="2"/>
    <rect x="810" y="-240" width="25" height="140" rx="2"/>
    <rect x="965" y="-240" width="25" height="140" rx="2"/>
    <rect x="810" y="-250" width="25" height="15" rx="3"/>
    <rect x="965" y="-250" width="25" height="15" rx="3"/>
    <polygon points="822,-250 812,-270 832,-270"/>
    <polygon points="977,-250 967,-270 987,-270"/>
    <rect x="835" y="-210" width="130" height="8" rx="2"/>
    <rect x="835" y="-180" width="130" height="10" rx="2"/>
    <rect x="780" y="-130" width="250" height="30" rx="2"/>
    <rect x="1020" y="-170" width="35" height="70" rx="2"/>
    <rect x="1065" y="-200" width="40" height="100" rx="2"/>
    <rect x="1115" y="-155" width="35" height="55" rx="2"/>
  </g>
</svg>